<?xml version="1.0" encoding="utf-8"?>
<!-- Generator: Adobe Illustrator 18.0.0, SVG Export Plug-In . SVG Version: 6.00 Build 0)  -->
<!DOCTYPE svg PUBLIC "-//W3C//DTD SVG 1.1 Tiny//EN" "http://www.w3.org/Graphics/SVG/1.1/DTD/svg11-tiny.dtd">
<svg  version="1.1" baseProfile="tiny" id="svg-cart-icon" xmlns="http://www.w3.org/2000/svg" xmlns:xlink="http://www.w3.org/1999/xlink"
	 x="0px" y="0px" viewBox="0 0 90 90" xml:space="preserve">

  <path d="M84,43.2H6c-2.2,0-3.7,0.7-3.2,2.9l8.3,34.3c0.5,2.2,2.8,3.3,5,3.3h57.5c2.2,0,4.5-1.2,5-3.3l8.3-34.3
      C87.6,43.9,86.2,43.2,84,43.2z M54.5,48.7c0.9,0,1.9,0,3,0l-4.2,29.5h-14l-4.2-29.5c0.1,0,0.3,0,0.4,0H54.5z M20.4,77.6L13,50.1
      c0-0.6,10.9-1.1,18.4-1.3l4.2,29.5h-0.1C29,78.2,20.4,78.3,20.4,77.6z M69.7,77.6c0,0.6-6.7,0.6-12.7,0.6l4.2-29.4
      c7.2,0.2,15.9,0.7,15.9,1.3L69.7,77.6z"/>
  <path d="M87.8,27.2L2.2,27.2c-1.1,0-1.9,0.9-1.6,2l1,3.1c0.2,1.1,1.3,1.6,2.4,1.6h82c1.1,0,2.2-0.5,2.4-1.6l1-3.4
      C89.7,27.9,88.9,27.2,87.8,27.2z"/>
  <path d="M45,9.9c9.5,0,17.2,7.7,17.2,17.2h3.7c0-11.5-9.4-20.9-20.9-20.9c-11.5,0-20.9,9.4-20.9,20.9h3.7
      C27.8,17.7,35.5,9.9,45,9.9z"/>
</svg>