<?xml version="1.0" encoding="utf-8"?>
<!-- Generator: Adobe Illustrator 18.0.0, SVG Export Plug-In . SVG Version: 6.00 Build 0)  -->
<!DOCTYPE svg PUBLIC "-//W3C//DTD SVG 1.1//EN" "http://www.w3.org/Graphics/SVG/1.1/DTD/svg11.dtd">
<svg version="1.1" id="Capa_1" xmlns="http://www.w3.org/2000/svg" xmlns:xlink="http://www.w3.org/1999/xlink" x="0px" y="0px"
	 viewBox="0 0 400 400" enable-background="new 0 0 400 400" xml:space="preserve">

	<path fill="#FFFFFF" d="M17.3,217.3h323.6l-77.2,77.2c-6.8,6.8-6.8,17.7,0,24.5c6.8,6.8,17.7,6.8,24.5,0l106.8-106.8
		c6.8-6.8,6.8-17.7,0-24.5L288.2,81c-3.4-3.4-7.8-5.1-12.2-5.1s-8.9,1.7-12.2,5.1c-6.8,6.8-6.8,17.7,0,24.5l77.2,77.2H17.3
		C7.8,182.7,0,190.4,0,200C0,209.6,7.8,217.3,17.3,217.3z"/>

</svg>